<?xml version="1.0" encoding="UTF-8"?>
<svg version="1.1" xmlns="http://www.w3.org/2000/svg" width="600" height="600">
<path d="M0 0 C198 0 396 0 600 0 C600 198 600 396 600 600 C402 600 204 600 0 600 C0 402 0 204 0 0 Z " fill="#FEFEFE" transform="translate(0,0)"/>
<path d="M0 0 C16.891875 -0.309375 16.891875 -0.309375 34.125 -0.625 C37.67266113 -0.71604004 41.22032227 -0.80708008 44.87548828 -0.90087891 C49.22827148 -0.94604492 49.22827148 -0.94604492 51.26998901 -0.95443726 C52.68754515 -0.96973424 54.10497575 -1.00479014 55.521698 -1.05575562 C60.15038892 -1.21385627 64.4920652 -1.22904667 69 0 C72.10166702 2.95059882 73.52812311 6.02760369 75 10 C75.39647736 10.8914975 75.79295471 11.782995 76.20144653 12.70150757 C77.26793535 15.10288441 78.15959888 17.51111977 79 20 C79.226875 20.6703125 79.45375 21.340625 79.6875 22.03125 C83.98176983 37.5383355 81.14291462 55.54121736 73.53051758 69.44775391 C63.13697542 87.09072833 47.39548698 96.45843229 28 102 C18.76 102 9.52 102 0 102 C0 68.34 0 34.68 0 0 Z " fill="#E51D26" transform="translate(489,304)"/>
<path d="M0 0 C11.09625 -0.185625 22.1925 -0.37125 33.625 -0.5625 C38.86818115 -0.68540405 38.86818115 -0.68540405 44.21728516 -0.81079102 C48.5065918 -0.85144043 48.5065918 -0.85144043 50.51864624 -0.85899353 C51.91531217 -0.87275872 53.31187509 -0.90430346 54.70785522 -0.95018005 C66.49252007 -1.3178908 66.49252007 -1.3178908 70.23217773 1.95144653 C71.79640711 4.25369364 72.94223533 6.43115539 74 9 C74.79664063 10.5778125 74.79664063 10.5778125 75.609375 12.1875 C82.85228634 30.04673343 82.89405351 46.23799364 75.71484375 64.21875 C68.24870013 80.35726658 56.03295506 90.87928163 40 98 C39.24332031 98.34289062 38.48664063 98.68578125 37.70703125 99.0390625 C24.61968323 103.68478777 15.03049254 102 0 102 C0 68.34 0 34.68 0 0 Z " fill="#E51D26" transform="translate(324,304)"/>
<path d="M0 0 C22.11 0 44.22 0 67 0 C67 19.8 67 39.6 67 60 C55.45 60 43.9 60 32 60 C31.34 63.3 30.68 66.6 30 70 C29.03515625 72.8125 29.03515625 72.8125 28.0625 75 C26.68005288 78.26298179 25.52163982 81.46351403 24.5625 84.875 C22.77975698 90.72239711 20.35119967 96.35712079 18 102 C0.51 102 -16.98 102 -35 102 C-31.75625 90.10625 -31.75625 90.10625 -29.81640625 85.16015625 C-28.79768362 82.46468442 -27.90092418 79.7370282 -27 77 C-25.68065817 73.00199446 -24.28782625 69.05519891 -22.78125 65.125 C-21.79264962 62.43600696 -20.89780198 59.72061208 -20 57 C-18.68065817 53.00199446 -17.28782625 49.05519891 -15.78125 45.125 C-14.79264962 42.43600696 -13.89780198 39.72061208 -13 37 C-11.68065817 33.00199446 -10.28782625 29.05519891 -8.78125 25.125 C-7.41886987 21.41932603 -6.21748999 17.65913632 -4.98046875 13.91015625 C-3.74262414 10.23607564 -2.38283575 6.62171268 -1 3 C-0.67 2.01 -0.34 1.02 0 0 Z " fill="#E51D26" transform="translate(65,304)"/>
<path d="M0 0 C21.78 0 43.56 0 66 0 C70.50428773 10.13464738 70.50428773 10.13464738 71.81640625 13.90234375 C72.25049805 15.14467773 72.25049805 15.14467773 72.69335938 16.41210938 C72.98017578 17.24548828 73.26699219 18.07886719 73.5625 18.9375 C73.85318359 19.76701172 74.14386719 20.59652344 74.44335938 21.45117188 C75.92396563 25.71412546 77.31270478 29.98792333 78.58984375 34.31640625 C79.56854509 37.62935724 80.63759575 40.82105674 82 44 C83.69469221 48.10834476 84.99183365 52.23246487 86.21875 56.5 C87.02073235 59.06634353 87.97491786 61.5149524 89 64 C90.69469221 68.10834476 91.99183365 72.23246487 93.21875 76.5 C94.02073235 79.06634353 94.97491786 81.5149524 96 84 C97.74214067 88.22519175 99.12515089 92.48027377 100.38671875 96.87109375 C100.88283347 98.59327542 101.43325142 100.29975426 102 102 C84.18 102 66.36 102 48 102 C45.69 94.74 43.38 87.48 41 80 C40.01 77.36 39.02 74.72 38 72 C37.42570775 70.40001708 36.86049126 68.7966807 36.3125 67.1875 C36.06113281 66.45917969 35.80976563 65.73085938 35.55078125 64.98046875 C35 63 35 63 35 60 C23.45 60 11.9 60 0 60 C0 40.2 0 20.4 0 0 Z " fill="#E51D26" transform="translate(140,304)"/>
<path d="M0 0 C19.47 0 38.94 0 59 0 C59 33.66 59 67.32 59 102 C39.53 102 20.06 102 0 102 C0 68.34 0 34.68 0 0 Z " fill="#E51C25" transform="translate(422,304)"/>
<path d="M0 0 C19.47 0 38.94 0 59 0 C59 33.66 59 67.32 59 102 C39.53 102 20.06 102 0 102 C0 68.34 0 34.68 0 0 Z " fill="#E51C25" transform="translate(257,304)"/>
<path d="M0 0 C19.47 0 38.94 0 59 0 C59 33.66 59 67.32 59 102 C39.53 102 20.06 102 0 102 C0 68.34 0 34.68 0 0 Z " fill="#E51C25" transform="translate(422,194)"/>
<path d="M0 0 C19.47 0 38.94 0 59 0 C59 33.66 59 67.32 59 102 C39.53 102 20.06 102 0 102 C0 68.34 0 34.68 0 0 Z " fill="#E51C25" transform="translate(257,194)"/>
<path d="M0 0 C35.84491979 0 35.84491979 0 51.80859375 14.75390625 C55.46538073 18.50194994 58.32046963 22.23179766 60.625 26.9375 C61.02976562 27.75089844 61.43453125 28.56429687 61.8515625 29.40234375 C64.38817809 35.13992664 65.33214512 40.04580212 65.25 46.3125 C65.24178223 47.06869629 65.23356445 47.82489258 65.22509766 48.60400391 C64.93255684 63.20902568 59.33786493 72.95663338 49.46484375 83.6875 C47.10401343 85.90241529 44.83717055 87.46256712 42 89 C42.88042969 89.51949219 43.76085937 90.03898437 44.66796875 90.57421875 C45.84137568 91.27826291 47.0145399 91.98271168 48.1875 92.6875 C48.76564453 93.02716797 49.34378906 93.36683594 49.93945312 93.71679688 C50.50986328 94.06162109 51.08027344 94.40644531 51.66796875 94.76171875 C52.44563599 95.225177 52.44563599 95.225177 53.23901367 95.69799805 C55.71630928 97.52961006 57.82149179 99.82149179 60 102 C40.2 102 20.4 102 0 102 C0 68.34 0 34.68 0 0 Z " fill="#E51E27" transform="translate(489,194)"/>
<path d="M0 0 C22.08731731 0 36.65265894 0.22147825 52.3125 14.75 C61.72700234 24.74326273 65.56183285 37.04902846 65.48779297 50.53613281 C65.01495173 63.35097986 58.77889923 74.28066931 49.77734375 83.203125 C44.92090069 87.53954965 44.92090069 87.53954965 42 89 C42.88042969 89.51949219 43.76085937 90.03898437 44.66796875 90.57421875 C45.84137568 91.27826291 47.0145399 91.98271168 48.1875 92.6875 C48.76564453 93.02716797 49.34378906 93.36683594 49.93945312 93.71679688 C50.50986328 94.06162109 51.08027344 94.40644531 51.66796875 94.76171875 C52.44563599 95.225177 52.44563599 95.225177 53.23901367 95.69799805 C55.71630928 97.52961006 57.82149179 99.82149179 60 102 C40.2 102 20.4 102 0 102 C0 68.34 0 34.68 0 0 Z " fill="#E51D26" transform="translate(324,194)"/>
<path d="M0 0 C9.24 0 18.48 0 28 0 C28 33.66 28 67.32 28 102 C7.21 102 -13.58 102 -35 102 C-33.22903258 94.91613032 -31.56791633 88.27244066 -29.0625 81.5 C-28.5355885 80.04328308 -28.00955112 78.5862497 -27.484375 77.12890625 C-27.23107422 76.42910645 -26.97777344 75.72930664 -26.71679688 75.00830078 C-25.70247247 72.16639597 -24.7547146 69.30400673 -23.8125 66.4375 C-22.78714232 63.32780867 -21.73789027 60.2435147 -20.5625 57.1875 C-19.08378752 53.33315107 -17.79370287 49.41929911 -16.5 45.5 C-15.00445538 40.96921721 -13.46286233 36.47149044 -11.74609375 32.01953125 C-10.76609884 29.36687488 -9.8862092 26.68538109 -9 24 C-6.3056576 15.85573775 -3.19029064 7.97572659 0 0 Z " fill="#E51E27" transform="translate(104,194)"/>
<path d="M0 0 C9.24 0 18.48 0 28 0 C29.32 3.96 30.64 7.92 32 12 C33.52443238 15.78872143 33.52443238 15.78872143 35.06640625 19.5703125 C36.31791947 22.82738875 37.25525589 26.14871615 38.21875 29.5 C39.02073235 32.06634353 39.97491786 34.5149524 41 37 C42.69469221 41.10834476 43.99183365 45.23246487 45.21875 49.5 C46.02073235 52.06634353 46.97491786 54.5149524 48 57 C49.69469221 61.10834476 50.99183365 65.23246487 52.21875 69.5 C53.28658939 72.91708603 54.66199843 76.18134221 56.02734375 79.48828125 C57.32048567 82.82759955 58.28890547 86.2314224 59.2734375 89.671875 C59.95147756 91.84451948 60.75512413 93.86361722 61.6875 95.9375 C63 99 63 99 63 102 C42.21 102 21.42 102 0 102 C0 68.34 0 34.68 0 0 Z " fill="#E51E26" transform="translate(140,194)"/>
</svg>
