<?xml version="1.0" encoding="UTF-8"?>
<svg version="1.1" xmlns="http://www.w3.org/2000/svg" width="256" height="256">
<path d="M0 0 C3.41278281 2.92102736 6.72774541 5.92293253 10 9 C10.59039062 9.5259375 11.18078125 10.051875 11.7890625 10.59375 C26.88646754 24.6178798 37.82296404 45.23667738 43 65 C43.19319824 65.69512695 43.38639648 66.39025391 43.58544922 67.10644531 C52.3651337 99.60202853 47.34199459 134.89624876 31.07519531 164.14794922 C24.55076047 175.38645119 16.1951132 184.87594641 7 194 C6.25363281 194.75539062 5.50726563 195.51078125 4.73828125 196.2890625 C-22.13885973 222.17075382 -56.58612365 228.85947404 -92.5872345 228.23699951 C-101.39229344 228.01189768 -109.61397486 226.6935178 -118 224 C-119.01102783 223.68651611 -119.01102783 223.68651611 -120.04248047 223.36669922 C-136.29539887 218.19196846 -151.01202886 210.00647298 -164 199 C-165.00546875 198.15824219 -166.0109375 197.31648437 -167.046875 196.44921875 C-190.25031301 176.45412962 -205.27293798 147.35208577 -209 117 C-209.86693739 99.29773634 -210.43314293 81.03573204 -205 64 C-204.75862305 63.22205078 -204.51724609 62.44410156 -204.26855469 61.64257812 C-193.35821019 27.36076612 -169.85333807 0.92527211 -138.11181641 -15.58740234 C-94.11985671 -37.64088224 -37.81907853 -31.49773399 0 0 Z M-158 41 C-161.70749099 46.09371176 -161.42643153 51.26885602 -161.38818359 57.31640625 C-161.39344055 58.34152313 -161.39869751 59.36664001 -161.40411377 60.42282104 C-161.4172903 63.80287017 -161.40858371 67.18244628 -161.3984375 70.5625 C-161.4004589 72.91609792 -161.40337089 75.26969523 -161.40713501 77.62329102 C-161.4115552 82.55263236 -161.40513695 87.48181046 -161.39111328 92.41113281 C-161.3740218 98.72623183 -161.38386458 105.04094833 -161.40183067 111.35603333 C-161.41267662 116.21507646 -161.40921839 121.07402907 -161.4014473 125.93307495 C-161.39944754 128.2614649 -161.40189665 130.58986309 -161.40888596 132.91824341 C-161.41651353 136.17358135 -161.40487723 139.42830174 -161.38818359 142.68359375 C-161.39425629 143.64377411 -161.40032898 144.60395447 -161.40658569 145.5932312 C-161.35725586 150.79171511 -161.01248906 154.56136115 -158 159 C-154.74631474 162.06485875 -152.45866428 162.37624036 -148.04786682 162.38095093 C-146.82954163 162.3894104 -145.61121643 162.39786987 -144.35597229 162.40658569 C-143.00887928 162.40075296 -141.66178758 162.39460847 -140.31469727 162.38818359 C-138.89366248 162.39224946 -137.47263086 162.39759142 -136.05160522 162.40411377 C-132.19411256 162.41779281 -128.33686056 162.41248606 -124.47936368 162.40297651 C-120.44179717 162.39538145 -116.40425128 162.40242524 -112.36668396 162.40713501 C-105.58515728 162.41259364 -98.8037286 162.40539881 -92.0222168 162.39111328 C-84.18437513 162.3747931 -76.34676766 162.38007017 -68.5089317 162.3965925 C-61.7784473 162.41021218 -55.04803336 162.41212448 -48.31753963 162.40427649 C-44.2982534 162.39960177 -40.27907719 162.39896943 -36.25979805 162.40888596 C-32.47994544 162.41756017 -28.70039428 162.41152563 -24.92057419 162.39420319 C-23.53426425 162.39024046 -22.14792889 162.39136877 -20.7616291 162.39799118 C-18.86746763 162.4062045 -16.97325065 162.39407253 -15.07911682 162.38095093 C-14.0196412 162.37981985 -12.96016558 162.37868877 -11.86858463 162.37752342 C-8.53705164 161.93907314 -6.6874688 160.99153967 -4 159 C-1.89343367 155.84015051 -1.74662921 155.07667771 -1.72584534 151.46562195 C-1.71088264 150.07148575 -1.71088264 150.07148575 -1.69561768 148.64918518 C-1.694953 147.6314653 -1.69428833 146.61374542 -1.69360352 145.56518555 C-1.68111824 143.95501556 -1.68111824 143.95501556 -1.66838074 142.31231689 C-1.6442301 138.75374758 -1.63550211 135.1953614 -1.62890625 131.63671875 C-1.6199434 129.16673221 -1.61082162 126.69674625 -1.60154724 124.22676086 C-1.58504064 119.0441455 -1.57735414 113.86159486 -1.57446289 108.67895508 C-1.56907914 102.03743489 -1.53140567 95.39653805 -1.48571873 88.75516033 C-1.45597765 83.65163451 -1.44873995 78.54825561 -1.44773674 73.44465065 C-1.44352819 70.99621611 -1.43106868 68.54778138 -1.41021919 66.09943199 C-1.38336921 62.67349923 -1.38811261 59.24898224 -1.40063477 55.82299805 C-1.38580048 54.81135086 -1.37096619 53.79970367 -1.35568237 52.75740051 C-1.40255309 48.2550564 -1.49273253 45.004017 -4.34996033 41.38606262 C-8.13481297 37.97822857 -10.79680645 37.8736608 -15.71125793 37.85955811 C-16.90152084 37.85384796 -18.09178375 37.84813782 -19.31811523 37.84225464 C-20.62570801 37.84113678 -21.93330078 37.84001892 -23.28051758 37.83886719 C-24.6702233 37.83423832 -26.05992776 37.82921356 -27.44963074 37.82382202 C-31.22659452 37.81070235 -35.00354053 37.80425387 -38.78052354 37.79981136 C-41.14063331 37.79687984 -43.50073823 37.79277487 -45.86084557 37.78830719 C-53.24624986 37.77463319 -60.63164307 37.76496615 -68.01705915 37.7611053 C-76.54022528 37.75662511 -85.063231 37.73907873 -93.58634835 37.7101047 C-100.17583571 37.68848219 -106.76527795 37.67840071 -113.3548004 37.67706418 C-117.28976113 37.67601653 -121.22457105 37.67011728 -125.1594944 37.65224457 C-128.86215275 37.63575402 -132.56454707 37.63361302 -136.26722908 37.64238358 C-138.26993861 37.64351987 -140.27263941 37.62980997 -142.27529907 37.6156311 C-143.47402145 37.62120026 -144.67274384 37.62676941 -145.90779114 37.63250732 C-147.46438556 37.63030748 -147.46438556 37.63030748 -149.05242634 37.6280632 C-152.57522477 38.07258419 -154.96348408 39.18363393 -158 41 Z " fill="#55B7DD" transform="translate(209,28)"/>
<path d="M0 0 C1.41295538 -0.00350266 2.82590682 -0.00916287 4.23884583 -0.01681519 C8.06953719 -0.03105122 11.89950973 -0.01401479 15.73013234 0.00946999 C19.74012425 0.02958906 23.75008661 0.02369895 27.76011658 0.0213623 C34.49286749 0.02141586 41.2253376 0.04116363 47.95800781 0.07324219 C55.74194392 0.11014932 63.52551241 0.11891554 71.3095246 0.11194468 C78.79909165 0.1056401 86.28853265 0.11639212 93.77807426 0.13591003 C96.96499871 0.14408472 100.15185874 0.14679347 103.3387928 0.1452179 C107.09078507 0.1443391 110.84242786 0.15855326 114.59432793 0.18444443 C115.97137126 0.19160762 117.34845178 0.1936891 118.72550964 0.19032669 C120.60467369 0.1866134 122.48384526 0.20319809 124.3629303 0.2208252 C125.41465455 0.22455391 126.4663788 0.22828262 127.54997349 0.23212433 C130.67801091 0.67155489 132.03791095 1.4157472 134.27709961 3.61523438 C135.58050108 7.52543877 135.4080623 11.23463992 135.390625 15.30932617 C135.39077103 16.19733917 135.39091705 17.08535217 135.3910675 18.00027466 C135.39037029 20.93835891 135.38258678 23.87637993 135.37475586 26.81445312 C135.372891 28.85040757 135.37146742 30.88636246 135.37046814 32.9223175 C135.3666483 38.28334795 135.35682253 43.64435134 135.34576416 49.00537109 C135.3355386 54.47493117 135.33096806 59.94449562 135.32592773 65.4140625 C135.31519982 76.14779835 135.29812976 86.88151411 135.27709961 97.61523438 C127.72322184 94.0471107 122.38365721 86.83188931 117.02319336 80.58007812 C114.55228572 77.79961606 111.89543021 75.2240522 109.24584961 72.61523438 C106.72284502 70.05218209 104.40147143 67.34177614 102.05834961 64.61523438 C99.57750563 61.82972534 96.91726313 59.24425385 94.25756836 56.63085938 C91.70036884 54.02826578 89.34925174 51.27757092 87.01538086 48.47460938 C84.94750389 46.26267806 82.67326741 44.4603244 80.27709961 42.61523438 C74.6164882 48.1837201 69.04552419 53.7436513 63.88647461 59.78710938 C61.71338176 62.25557407 59.37237592 64.530588 57.02709961 66.83398438 C55.19467474 68.69913112 53.48356826 70.63451183 51.77709961 72.61523438 C44.92300307 80.536899 44.92300307 80.536899 41.27709961 83.61523438 C40.61709961 83.61523438 39.95709961 83.61523438 39.27709961 83.61523438 C37.83178711 82.14648438 37.83178711 82.14648438 36.15209961 80.11523438 C32.94149521 76.32577887 29.54259481 72.83112658 25.97631836 69.37695312 C24.27709961 67.61523438 24.27709961 67.61523438 22.27709961 64.61523438 C19.2988376 65.94329652 17.33259501 67.3503467 15.13256836 69.74804688 C14.54523926 70.38178223 13.95791016 71.01551758 13.3527832 71.66845703 C12.72968262 72.35214355 12.10658203 73.03583008 11.46459961 73.74023438 C10.12758746 75.18836106 8.79034084 76.63627129 7.45288086 78.08398438 C6.42348389 79.20353516 6.42348389 79.20353516 5.37329102 80.34570312 C3.30621056 82.58371616 1.2232062 84.80547764 -0.86743164 87.02148438 C-1.53476318 87.72901855 -2.20209473 88.43655273 -2.88964844 89.16552734 C-4.16257095 90.51414915 -5.43613595 91.86216491 -6.71044922 93.20947266 C-9.42311891 96.09385871 -12.05147059 98.98509484 -14.52758789 102.07617188 C-15.61426758 103.33300781 -15.61426758 103.33300781 -16.72290039 104.61523438 C-17.38290039 104.61523438 -18.04290039 104.61523438 -18.72290039 104.61523438 C-18.83871644 91.79368824 -18.92757668 78.9722664 -18.98196125 66.15030384 C-19.00806233 60.19661301 -19.04347068 54.24327988 -19.10009766 48.28979492 C-19.15439774 42.54504058 -19.18431707 36.80063042 -19.19728661 31.05563927 C-19.20652997 28.86313139 -19.2245801 26.67064249 -19.25155067 24.47828102 C-19.28781343 21.40868958 -19.29284677 18.3405229 -19.29052734 15.27075195 C-19.30850372 14.36300522 -19.3264801 13.45525848 -19.34500122 12.52000427 C-19.3121961 8.51143542 -18.99379255 6.11010358 -17.04510498 2.55021667 C-11.65662107 -0.58824777 -6.09465344 -0.06328224 0 0 Z M26.46459961 33.30273438 C24.59282822 36.94776286 24.16366335 40.53861888 24.27709961 44.61523438 C26.10184406 49.98809304 29.22512032 53.08924473 34.27709961 55.61523438 C38.98407378 56.18948522 42.39854753 56.0707799 46.65209961 53.86523438 C51.38218368 49.8108766 52.85052084 47.066515 53.33959961 40.86132812 C53.24454621 37.4453465 52.21634755 35.39482308 50.27709961 32.61523438 C45.62195415 28.41424945 42.74674002 27.26087347 36.59741211 27.33007812 C32.21262349 27.86894945 29.58355762 30.39887692 26.46459961 33.30273438 Z " fill="#55B7DD" transform="translate(69.722900390625,68.384765625)"/>
</svg>
