<?xml version="1.0" encoding="utf-8"?>
<!-- Uploaded to: SVG Repo, www.svgrepo.com, Generator: SVG Repo Mixer Tools -->
<svg fill="#000000" width="800px" height="800px" viewBox="0 0 32 32" version="1.1" xmlns="http://www.w3.org/2000/svg">
<title>woo</title>
<path d="M26.295 12.096c-0.489 0.056-0.897 0.354-1.107 0.769l-0.004 0.008c-0.3 0.414-0.525 0.904-0.645 1.433l-0.005 0.027c-0.055 0.257-0.086 0.551-0.086 0.853 0 0.015 0 0.029 0 0.044l-0-0.002c0.006 0.403 0.086 0.786 0.229 1.137l-0.008-0.021c0.184 0.477 0.43 0.736 0.724 0.797 0.032 0.003 0.070 0.005 0.108 0.005 0.352 0 0.668-0.154 0.884-0.397l0.001-0.001c0.483-0.474 0.817-1.098 0.929-1.796l0.002-0.018c0.053-0.271 0.085-0.585 0.087-0.905v-0.002c-0.005-0.403-0.086-0.786-0.229-1.137l0.008 0.021c-0.185-0.477-0.43-0.735-0.725-0.796-0.049-0.010-0.105-0.017-0.163-0.018h-0.001zM18.607 12.096c-0.489 0.056-0.897 0.354-1.107 0.769l-0.004 0.008c-0.3 0.414-0.525 0.904-0.645 1.433l-0.005 0.027c-0.055 0.254-0.087 0.546-0.087 0.845 0 0.017 0 0.035 0 0.052l-0-0.003c0.006 0.403 0.086 0.786 0.229 1.137l-0.008-0.021c0.184 0.477 0.429 0.736 0.724 0.797 0.032 0.003 0.070 0.005 0.108 0.005 0.352 0 0.668-0.154 0.884-0.397l0.001-0.001c0.483-0.474 0.817-1.098 0.929-1.796l0.002-0.018c0.055-0.255 0.087-0.549 0.087-0.85 0-0.020-0-0.040-0-0.060l0 0.003c-0.005-0.403-0.085-0.786-0.227-1.137l0.007 0.021c-0.185-0.477-0.43-0.735-0.725-0.796-0.049-0.010-0.105-0.017-0.163-0.017h-0.001zM26.238 10.040c0.236 0.002 0.464 0.029 0.684 0.079l-0.021-0.004c0.851 0.162 1.555 0.688 1.955 1.406l0.007 0.014c0.371 0.652 0.59 1.433 0.59 2.264 0 0.053-0.001 0.106-0.003 0.159l0-0.008c0 0.018 0 0.038 0 0.059 0 1.261-0.356 2.439-0.972 3.439l0.016-0.028c-0.535 1.079-1.619 1.814-2.877 1.839l-0.003 0c-0.236-0.002-0.464-0.029-0.684-0.078l0.022 0.004c-0.852-0.162-1.556-0.689-1.955-1.408l-0.007-0.014c-0.372-0.661-0.59-1.452-0.59-2.293 0-0.047 0.001-0.095 0.002-0.142l-0 0.007c-0-0.019-0-0.041-0-0.064 0-1.256 0.356-2.428 0.972-3.422l-0.016 0.028c0.541-1.075 1.622-1.807 2.877-1.839l0.004-0zM18.551 10.040c0.236 0.002 0.464 0.029 0.684 0.079l-0.021-0.004c0.85 0.165 1.553 0.69 1.955 1.406l0.007 0.014c0.371 0.652 0.59 1.432 0.59 2.264 0 0.053-0.001 0.106-0.003 0.159l0-0.008c0 0.018 0 0.038 0 0.059 0 1.261-0.356 2.439-0.973 3.439l0.016-0.028c-0.535 1.079-1.619 1.814-2.877 1.839l-0.003 0c-0.236-0.002-0.464-0.029-0.684-0.078l0.022 0.004c-0.852-0.162-1.556-0.689-1.955-1.408l-0.007-0.014c-0.372-0.661-0.591-1.452-0.591-2.293 0-0.047 0.001-0.095 0.002-0.142l-0 0.007c-0-0.019-0-0.041-0-0.063 0-1.256 0.356-2.428 0.973-3.422l-0.016 0.028c0.541-1.075 1.622-1.807 2.877-1.839l0.004-0zM13.884 8.712c0.256 0.005 0.489 0.099 0.67 0.251l-0.002-0.001c0.216 0.164 0.359 0.413 0.38 0.697l0 0.003c0.002 0.026 0.003 0.055 0.003 0.085 0 0.184-0.047 0.357-0.129 0.507l0.003-0.006c-0.587 1.291-1.007 2.788-1.182 4.359l-0.006 0.067c-0.225 1.202-0.354 2.585-0.354 3.998 0 0.237 0.004 0.474 0.011 0.709l-0.001-0.035c0.005 0.046 0.008 0.1 0.008 0.154 0 0.239-0.058 0.464-0.159 0.662l0.004-0.008c-0.123 0.247-0.364 0.419-0.647 0.441l-0.003 0c-0.004 0-0.009 0-0.014 0-0.384 0-0.727-0.175-0.953-0.45l-0.002-0.002c-1.274-1.437-2.217-3.197-2.693-5.14l-0.017-0.083q-0.898 1.757-1.766 3.53c-0.722 1.387-1.336 2.097-1.851 2.134-0.331 0.025-0.612-0.257-0.859-0.846-0.869-2.653-1.578-5.802-1.995-9.041l-0.028-0.266c-0.009-0.053-0.014-0.114-0.014-0.176 0-0.242 0.079-0.467 0.213-0.648l-0.002 0.003c0.181-0.23 0.459-0.378 0.772-0.38h0c0.052-0.011 0.111-0.017 0.171-0.017 0.495 0 0.896 0.401 0.896 0.896 0 0.001 0 0.002 0 0.003v-0c0.38 2.563 0.797 4.734 1.238 6.511l2.685-5.111c0.151-0.39 0.496-0.673 0.913-0.735l0.006-0.001c0.539-0.037 0.87 0.306 1.005 1.030 0.289 1.597 0.692 3.005 1.219 4.351l-0.054-0.157c0.129-2.467 0.712-4.768 1.667-6.862l-0.048 0.118c0.149-0.309 0.452-0.522 0.808-0.539l0.002-0q0.052-0.005 0.105-0.005zM3.787 7.074c-1.537 0.001-2.783 1.247-2.783 2.784 0 0.004 0 0.008 0 0.012v-0.001 9.319c0 0 0 0.001 0 0.001 0 1.543 1.251 2.795 2.795 2.795 0 0 0.001 0 0.001 0h11.563l5.285 2.943-1.202-2.943h8.755c0 0 0.001 0 0.002 0 1.543 0 2.794-1.251 2.794-2.794 0-0.001 0-0.001 0-0.002v0-9.319c0-0.001 0-0.001 0-0.002 0-1.543-1.251-2.794-2.794-2.794-0.001 0-0.001 0-0.002 0h0z"></path>
</svg>